<?xml version="1.0" standalone="no"?>
<!DOCTYPE svg PUBLIC "-//W3C//DTD SVG 20010904//EN"
 "http://www.w3.org/TR/2001/REC-SVG-20010904/DTD/svg10.dtd">
<svg version="1.0" xmlns="http://www.w3.org/2000/svg"
 width="2400.000000pt" height="1600.000000pt" viewBox="0 0 2400.000000 1600.000000"
 preserveAspectRatio="xMidYMid meet">
<g transform="translate(0.000000,1600.000000) scale(0.100000,-0.100000)"
fill="#000000" stroke="none">
<path d="M8706 11642 c-20 -22 -23 -23 -203 -20 -181 2 -183 2 -199 -21 -16
-22 -21 -23 -95 -17 -76 5 -80 4 -103 -21 -22 -24 -29 -25 -81 -20 -51 5 -58
4 -78 -20 -19 -21 -28 -24 -59 -19 -31 5 -41 2 -62 -20 -15 -17 -30 -25 -40
-21 -10 4 -25 -4 -40 -20 -20 -22 -30 -25 -61 -20 -30 5 -40 2 -57 -19 -14
-15 -28 -22 -39 -19 -11 4 -27 -4 -42 -21 -16 -17 -31 -25 -41 -21 -10 4 -25
-4 -40 -20 -15 -16 -30 -24 -40 -20 -10 4 -25 -4 -40 -20 -15 -16 -30 -24 -40
-20 -11 4 -24 -3 -38 -18 -15 -18 -28 -23 -45 -19 -31 8 -43 -21 -17 -41 16
-11 17 -16 6 -27 -11 -11 -16 -10 -26 5 -17 23 -33 22 -47 -4 -7 -14 -17 -19
-30 -16 -21 6 -79 -47 -79 -70 0 -14 -10 -16 -47 -14 -14 2 -41 -18 -81 -60
-39 -40 -66 -60 -76 -56 -21 8 -527 -498 -519 -519 3 -10 -18 -38 -61 -80 -36
-36 -64 -70 -61 -75 14 -22 -16 -89 -40 -89 -27 0 -41 -16 -37 -42 2 -9 -6
-23 -17 -30 -12 -7 -21 -23 -21 -38 0 -17 -15 -39 -44 -67 -32 -30 -43 -48
-39 -62 3 -13 -2 -24 -16 -33 -13 -8 -21 -23 -21 -40 0 -17 -8 -33 -20 -40
-12 -8 -20 -24 -20 -40 0 -17 -8 -33 -20 -40 -12 -8 -20 -24 -20 -39 0 -15
-10 -34 -25 -47 -15 -14 -22 -27 -18 -38 4 -10 -4 -25 -20 -40 -21 -19 -25
-31 -21 -52 7 -33 -12 -112 -26 -112 -6 0 -10 -22 -10 -50 0 -39 -4 -53 -20
-62 -17 -11 -20 -24 -20 -80 0 -57 -3 -70 -20 -80 -17 -11 -20 -24 -20 -80 0
-56 -3 -69 -20 -81 -32 -23 -31 -1222 1 -1245 18 -12 20 -24 18 -99 -2 -76 0
-86 20 -99 16 -12 21 -26 21 -60 0 -38 5 -49 35 -75 39 -35 41 -41 20 -63 -21
-20 -19 -33 6 -47 18 -9 21 -17 16 -50 -4 -34 -1 -44 20 -64 16 -14 24 -29 20
-39 -4 -11 3 -24 18 -38 20 -17 25 -31 25 -67 0 -36 5 -49 21 -59 14 -9 19
-20 16 -33 -4 -13 4 -28 20 -43 16 -15 24 -30 20 -40 -4 -11 3 -25 18 -38 14
-12 25 -29 24 -38 -3 -33 2 -40 29 -40 19 0 32 -7 38 -19 5 -11 25 -31 44 -43
35 -24 46 -58 22 -66 -7 -2 -16 5 -19 17 -5 21 -23 28 -36 14 -4 -3 23 -35 59
-69 45 -42 65 -67 61 -78 -4 -10 10 -31 40 -60 30 -29 44 -50 40 -60 -4 -11
21 -42 79 -98 57 -56 83 -89 80 -100 -6 -24 339 -369 360 -361 10 3 52 -32
121 -101 72 -72 111 -105 122 -101 10 3 32 -12 59 -41 30 -30 49 -43 61 -39
11 3 26 -4 40 -20 14 -17 28 -24 40 -20 11 3 25 -4 39 -20 14 -15 27 -22 38
-18 10 4 25 -4 40 -20 15 -16 30 -24 40 -20 10 4 25 -4 40 -20 15 -16 30 -24
40 -20 10 4 25 -4 40 -20 15 -16 30 -24 40 -20 10 4 25 -4 40 -20 15 -16 30
-24 40 -20 10 4 25 -4 41 -21 15 -17 31 -25 42 -21 11 3 25 -4 39 -20 19 -21
28 -24 60 -19 32 5 40 2 60 -21 15 -17 29 -24 41 -20 11 3 25 -4 38 -19 20
-22 27 -24 78 -19 52 5 59 4 80 -19 22 -24 29 -25 103 -22 73 3 81 2 99 -20
19 -22 27 -23 101 -20 74 3 83 2 96 -18 15 -21 20 -21 259 -19 l243 1 21 -23
c28 -33 135 -32 159 1 14 21 20 21 240 20 217 -1 226 0 240 20 13 19 22 20 94
16 76 -4 81 -3 102 22 20 22 29 25 60 20 31 -5 41 -2 62 20 15 17 30 25 40 21
11 -4 24 3 38 18 13 15 28 23 39 20 24 -8 169 139 162 164 -3 12 3 24 17 34
33 23 33 341 0 364 -14 10 -20 22 -17 34 4 14 -9 33 -40 64 -30 28 -44 49 -40
59 4 10 -10 31 -40 60 -29 29 -44 50 -40 60 4 11 -33 54 -119 138 -88 87 -124
128 -120 141 7 29 -21 48 -60 41 -42 -8 -64 8 -64 47 0 25 -4 29 -27 29 -20 0
-40 13 -71 45 -28 29 -48 42 -58 38 -10 -4 -25 4 -40 20 -14 15 -30 23 -42 21
-10 -3 -26 3 -36 15 -11 12 -28 21 -39 21 -11 0 -30 11 -42 24 -21 22 -28 24
-80 19 -52 -5 -59 -4 -81 20 -21 23 -28 25 -80 20 -51 -5 -58 -4 -80 20 -23
25 -26 26 -120 20 -94 -5 -97 -5 -120 20 -23 25 -28 26 -102 21 -74 -5 -78 -5
-100 20 -19 22 -28 25 -60 20 -31 -5 -40 -2 -59 20 -18 21 -28 24 -58 19 -33
-5 -40 -2 -82 41 -30 31 -51 45 -62 41 -11 -3 -25 4 -39 20 -14 15 -27 22 -38
18 -10 -4 -25 4 -40 20 -15 16 -30 24 -40 20 -10 -4 -37 17 -81 61 -68 70 -91
76 -120 37 -10 -13 -14 -14 -25 -3 -11 11 -10 16 5 26 25 19 24 21 -64 104
-56 53 -79 82 -76 94 4 13 -21 44 -80 103 -59 58 -84 89 -79 100 3 9 -4 24
-19 37 -15 13 -25 32 -25 47 0 15 -8 31 -20 39 -12 7 -20 23 -20 40 0 16 -8
32 -20 40 -12 7 -20 23 -20 40 0 16 -8 32 -20 40 -15 9 -20 23 -20 60 0 36 -5
50 -20 59 -19 12 -19 27 -19 475 -1 445 4 528 30 528 5 0 9 13 9 30 0 19 7 34
20 42 12 8 20 24 20 40 0 17 8 33 20 40 12 8 20 24 20 40 0 17 8 33 20 40 11
7 20 24 20 38 0 17 15 39 44 67 29 28 43 48 40 60 -6 24 138 168 160 160 10
-4 43 22 100 80 57 57 90 84 100 80 10 -4 32 10 60 40 30 30 50 44 61 40 10
-4 24 3 38 19 19 22 28 25 59 20 32 -5 41 -2 60 20 20 22 29 25 60 20 32 -5
41 -2 60 19 20 23 27 25 80 20 53 -5 60 -3 79 19 l22 25 283 -1 283 -1 21 -24
c18 -21 26 -23 78 -18 53 5 60 3 80 -20 19 -21 28 -24 60 -19 31 5 40 2 60
-20 19 -22 28 -25 60 -20 31 5 40 2 59 -20 14 -16 28 -23 39 -19 10 4 25 -4
40 -20 15 -16 30 -24 40 -20 10 4 37 -17 81 -61 42 -43 71 -65 80 -61 23 8
323 -293 323 -325 0 -15 9 -31 21 -38 14 -9 19 -20 16 -33 -4 -14 7 -32 39
-62 29 -28 44 -50 44 -67 0 -14 9 -31 20 -38 12 -7 20 -23 20 -40 0 -16 8 -32
20 -40 15 -9 20 -23 20 -60 0 -36 5 -50 20 -60 15 -9 20 -23 20 -60 0 -37 4
-50 21 -60 19 -12 21 -21 17 -119 -3 -107 9 -143 34 -99 5 9 13 16 18 16 13 0
13 -37 0 -45 -13 -8 -13 -105 0 -105 14 0 33 -79 26 -112 -4 -22 0 -33 19 -50
15 -13 25 -32 25 -49 0 -18 7 -32 20 -39 11 -6 20 -19 20 -29 0 -10 9 -30 20
-44 11 -14 20 -36 20 -49 0 -13 9 -29 21 -36 14 -9 19 -20 16 -33 -4 -14 12
-37 60 -84 43 -42 64 -69 60 -79 -4 -10 17 -38 60 -80 42 -42 63 -70 60 -80
-8 -21 137 -166 161 -160 11 3 44 -22 100 -80 56 -58 87 -83 98 -79 10 4 31
-11 61 -41 30 -31 51 -45 62 -41 11 3 26 -4 40 -20 14 -17 28 -24 40 -20 11 3
25 -4 39 -20 19 -22 28 -24 61 -19 32 5 41 3 54 -16 14 -21 25 -23 97 -24 l82
-1 74 72 c48 47 72 78 68 87 -3 9 4 27 15 42 12 15 21 35 21 45 0 10 9 23 19
29 16 8 19 21 20 76 0 69 16 134 32 134 5 0 9 49 9 109 0 104 12 171 31 171
15 0 12 707 -3 712 -14 5 -27 116 -27 251 -1 71 -5 102 -15 113 -9 9 -17 48
-22 104 -3 49 -10 90 -15 90 -12 0 -29 68 -29 115 0 29 -5 44 -20 53 -15 9
-20 23 -20 60 0 36 -5 50 -20 60 -15 9 -20 23 -20 60 0 36 -5 50 -20 60 -13 8
-20 23 -20 42 0 17 -4 30 -10 30 -11 0 -33 77 -25 90 3 5 -15 28 -40 52 -30
29 -45 51 -45 68 0 14 -9 31 -20 38 -12 7 -20 23 -20 40 0 16 -8 32 -20 40
-12 7 -20 23 -20 40 0 16 -8 32 -20 40 -12 7 -20 23 -20 40 0 17 -8 32 -21 40
-14 9 -19 20 -16 33 4 14 -8 32 -40 64 -30 28 -44 49 -40 59 4 10 -10 31 -40
60 -30 30 -44 50 -40 61 4 10 -5 25 -26 43 -62 53 -98 97 -93 114 5 20 -287
318 -311 318 -7 0 -13 6 -13 13 0 23 -100 119 -117 113 -11 -5 -37 14 -80 58
-42 43 -69 63 -79 59 -10 -4 -31 11 -60 40 -29 30 -50 44 -60 40 -10 -4 -31
11 -61 41 -30 31 -51 45 -62 41 -11 -3 -25 4 -39 20 -14 15 -27 22 -38 18 -10
-4 -25 4 -40 20 -15 16 -30 24 -40 20 -10 -4 -25 4 -40 20 -15 16 -30 24 -40
20 -10 -4 -25 4 -41 21 -27 29 -57 28 -80 -3 -10 -13 -14 -14 -25 -3 -11 11
-10 16 6 27 27 20 14 48 -17 36 -26 -10 -37 -6 -53 24 -7 12 -21 19 -33 18
-12 -2 -25 5 -31 17 -14 25 -36 26 -50 1 -14 -27 -60 -13 -106 33 -30 30 -39
34 -70 29 -30 -5 -40 -2 -60 20 -21 23 -28 25 -80 20 -50 -5 -58 -4 -79 19
-21 23 -28 25 -103 20 -74 -4 -80 -3 -96 19 -16 23 -16 23 -220 21 -200 -3
-204 -3 -219 19 -24 34 -212 35 -241 1z m330 -225 c62 -22 215 -29 238 -12 28
21 69 19 84 -5 7 -11 22 -20 34 -20 12 0 41 -7 64 -16 33 -13 52 -14 88 -6 38
8 50 7 69 -7 36 -28 76 -41 119 -41 23 0 49 -6 57 -14 21 -19 198 -78 238 -80
17 -1 40 -9 50 -18 10 -8 39 -25 66 -36 26 -12 47 -26 47 -33 0 -7 10 -9 29
-6 24 5 32 1 45 -18 10 -15 26 -25 40 -25 12 0 31 -9 41 -20 10 -11 26 -22 37
-26 11 -3 45 -23 76 -43 31 -21 68 -42 82 -46 14 -4 55 -32 92 -61 37 -30 69
-54 72 -54 9 0 78 -49 90 -64 6 -7 47 -41 91 -74 91 -69 379 -358 389 -390 4
-12 11 -22 15 -22 14 0 130 -147 145 -184 8 -20 19 -36 25 -36 5 0 13 -10 17
-22 4 -13 22 -41 40 -64 19 -23 34 -48 34 -56 0 -8 9 -27 21 -42 28 -35 56
-87 123 -223 30 -61 60 -114 66 -118 6 -4 8 -15 5 -26 -4 -12 2 -29 14 -45 13
-16 21 -41 21 -64 0 -22 7 -43 16 -51 21 -17 44 -63 44 -87 0 -11 7 -33 15
-48 8 -16 15 -43 15 -60 0 -17 9 -57 20 -89 11 -32 20 -70 20 -85 0 -15 7 -44
15 -63 8 -20 12 -42 10 -50 -3 -7 3 -24 15 -37 13 -15 20 -37 20 -63 0 -24 7
-48 17 -59 17 -19 16 -20 -6 -37 -21 -16 -22 -21 -12 -59 6 -22 9 -58 5 -79
-4 -26 1 -58 15 -100 29 -86 32 -454 4 -485 -23 -25 -28 -232 -6 -249 21 -18
16 -60 -8 -66 -18 -5 -19 -11 -14 -44 5 -31 2 -44 -14 -65 -24 -30 -30 -121
-9 -142 8 -8 8 -15 1 -24 -6 -7 -13 -33 -17 -58 -8 -48 -8 -51 -4 -90 3 -22
-1 -25 -36 -28 -27 -2 -42 1 -48 11 -4 8 -28 18 -52 21 -31 5 -49 14 -59 30
-9 13 -28 26 -44 29 -15 3 -66 29 -113 58 -47 29 -100 60 -119 70 -18 10 -41
24 -50 32 -9 8 -32 23 -51 32 -43 22 -331 309 -353 352 -9 17 -23 33 -31 36
-8 3 -24 23 -35 45 -11 21 -27 44 -35 51 -9 8 -16 21 -16 31 0 9 -9 25 -19 34
-11 10 -23 31 -26 46 -3 15 -15 36 -26 46 -10 9 -19 27 -19 39 0 13 -7 28 -15
35 -8 7 -17 28 -21 48 -4 20 -18 63 -30 96 -13 33 -24 77 -24 97 0 21 -4 41
-10 44 -5 3 -10 19 -10 34 0 16 -7 34 -15 41 -17 14 -20 81 -4 97 7 7 7 17 1
29 -6 11 -18 51 -26 89 -11 45 -24 76 -37 85 -16 13 -19 23 -14 56 5 30 3 43
-9 53 -9 7 -16 20 -16 28 0 9 -9 32 -20 52 -10 20 -26 52 -34 71 -8 19 -29 60
-46 90 -16 30 -30 62 -30 71 0 8 -12 26 -26 40 -14 13 -41 47 -59 74 -18 28
-60 83 -94 123 -33 40 -67 80 -74 88 -24 30 -72 74 -80 74 -4 0 -35 27 -70 61
-34 34 -75 68 -92 76 -16 9 -38 23 -48 31 -23 20 -74 52 -152 93 -33 17 -71
40 -85 51 -15 12 -33 17 -46 14 -13 -4 -26 -1 -30 5 -10 17 -74 42 -114 45
-19 2 -59 15 -89 30 -43 23 -58 26 -80 18 -19 -8 -35 -7 -56 2 -17 7 -46 13
-65 14 -20 0 -45 7 -57 15 -35 24 -375 27 -411 3 -15 -10 -40 -18 -56 -18 -16
0 -38 -7 -48 -17 -15 -13 -23 -14 -44 -5 -40 19 -73 14 -124 -17 -35 -22 -51
-26 -64 -19 -12 7 -22 6 -34 -4 -9 -8 -37 -23 -62 -33 -95 -39 -188 -85 -200
-100 -7 -8 -18 -15 -24 -15 -7 0 -23 -11 -36 -25 -12 -13 -39 -30 -59 -36 -20
-6 -54 -28 -76 -48 -22 -21 -64 -57 -93 -81 -111 -90 -312 -339 -338 -420 -9
-27 -20 -50 -26 -50 -5 0 -19 -21 -31 -47 -12 -27 -30 -59 -40 -73 -9 -13 -17
-40 -17 -60 0 -19 -9 -48 -20 -65 -22 -33 -26 -80 -8 -91 7 -5 4 -10 -10 -15
-18 -7 -22 -16 -22 -48 0 -22 -4 -43 -10 -46 -12 -8 -33 -80 -36 -125 -11
-170 -9 -463 3 -525 25 -125 30 -144 40 -157 6 -7 13 -39 17 -70 3 -32 13 -72
20 -90 8 -18 29 -78 46 -133 17 -55 37 -103 44 -107 7 -4 25 -38 41 -75 15
-37 36 -77 47 -89 10 -11 18 -23 18 -27 0 -6 37 -62 100 -148 58 -81 208 -247
239 -265 16 -10 35 -27 41 -38 11 -19 75 -67 164 -121 18 -11 57 -38 87 -60
66 -49 105 -70 144 -79 17 -4 39 -15 50 -25 11 -10 40 -23 65 -30 25 -7 63
-22 84 -32 22 -10 47 -19 57 -19 9 0 30 -7 45 -15 16 -8 43 -15 61 -15 17 0
35 -5 39 -11 4 -6 20 -8 40 -4 25 4 39 1 50 -10 8 -8 24 -15 35 -15 11 0 29
-5 40 -10 13 -8 25 -7 40 0 16 9 30 8 60 -4 29 -12 45 -13 59 -6 29 16 46 12
80 -16 29 -25 35 -26 68 -16 41 13 130 -7 152 -33 7 -8 24 -15 39 -15 14 0 41
-9 59 -20 18 -11 41 -20 51 -20 23 0 103 -43 156 -85 22 -17 58 -43 80 -57 64
-42 277 -257 305 -308 8 -15 36 -58 61 -96 26 -38 63 -100 83 -138 20 -38 40
-74 45 -80 5 -6 12 -22 16 -36 4 -14 18 -37 32 -52 25 -26 25 -27 8 -56 -19
-31 -63 -52 -111 -52 -16 0 -45 -8 -64 -18 -23 -13 -48 -17 -73 -14 -30 3 -43
0 -58 -17 -11 -11 -27 -21 -35 -21 -8 0 -26 -7 -40 -16 -20 -14 -30 -15 -50
-5 -15 7 -32 8 -42 2 -9 -4 -46 -12 -81 -15 -36 -4 -74 -14 -85 -22 -16 -11
-36 -13 -78 -8 -49 6 -61 3 -84 -15 -31 -25 -42 -26 -63 -7 -29 25 -505 29
-527 5 -22 -25 -39 -24 -65 2 -18 18 -29 21 -74 16 -41 -4 -62 -1 -89 14 -27
14 -66 20 -160 25 -91 5 -126 11 -130 20 -3 8 -17 14 -31 14 -14 0 -42 7 -63
16 -23 9 -50 13 -69 9 -20 -4 -33 -2 -33 4 0 15 -66 41 -104 41 -46 0 -130 32
-176 66 -8 6 -36 15 -61 18 -26 4 -54 15 -64 26 -9 10 -35 22 -57 25 -23 4
-61 22 -85 41 -25 19 -50 34 -58 34 -19 0 -190 87 -205 105 -7 8 -17 15 -22
15 -6 0 -33 18 -60 40 -28 22 -56 40 -63 40 -7 0 -18 7 -25 16 -8 8 -28 21
-47 29 -18 8 -43 25 -56 38 -12 13 -30 28 -39 33 -82 45 -538 492 -538 528 0
7 -13 25 -30 41 -16 16 -42 47 -57 69 -15 23 -44 60 -65 83 -21 24 -38 48 -38
54 0 6 -11 24 -25 41 -14 16 -25 35 -25 42 0 7 -9 21 -20 31 -11 10 -20 28
-20 41 0 13 -6 27 -13 31 -16 10 -52 70 -62 103 -4 14 -16 37 -26 52 -11 14
-19 37 -19 50 0 13 -13 39 -28 58 -17 21 -32 53 -36 80 -4 25 -16 54 -27 66
-11 11 -21 40 -24 63 -2 24 -12 52 -21 62 -11 12 -19 42 -22 77 -2 31 -9 63
-16 71 -17 22 -35 102 -29 137 3 18 0 34 -6 38 -6 4 -11 17 -11 30 0 12 -6 31
-14 41 -10 13 -10 25 -3 45 8 22 6 34 -11 62 -19 31 -20 37 -7 54 19 25 19 78
0 94 -23 19 -22 547 1 592 14 26 14 38 5 64 -9 25 -8 38 5 69 8 21 13 47 10
59 -3 12 2 46 10 76 9 30 17 71 19 90 5 53 15 92 33 127 13 26 14 36 4 58 -11
24 -9 32 19 73 18 27 34 67 39 99 5 29 16 63 24 75 9 12 16 31 16 41 0 10 24
67 54 125 30 59 57 117 60 129 4 11 13 27 21 33 8 7 15 23 15 36 0 12 4 26 10
29 10 6 56 74 104 155 15 25 47 70 72 100 24 30 49 66 54 79 26 60 415 474
488 518 16 10 41 32 56 50 14 17 51 48 81 68 30 20 55 40 55 46 0 5 5 9 11 9
6 0 43 21 82 46 40 25 110 70 157 100 46 30 89 54 94 54 5 0 18 8 28 17 16 14
32 19 75 22 6 1 25 13 42 27 17 14 38 23 46 20 8 -3 19 3 25 14 7 12 56 33
155 65 79 25 147 50 150 56 4 5 24 9 46 9 46 0 91 20 112 51 12 17 19 19 35
10 29 -16 93 -13 116 4 11 8 32 15 47 15 14 0 32 7 39 15 16 19 59 19 84 0 23
-17 167 -10 206 11 35 19 343 19 396 1z"/>
<path d="M15188 11643 c-14 -16 -67 -68 -116 -116 -62 -59 -89 -93 -85 -103 4
-10 -11 -31 -40 -59 -32 -32 -44 -50 -40 -64 3 -13 -2 -24 -16 -33 -13 -8 -21
-23 -21 -40 0 -17 -8 -33 -20 -40 -12 -8 -20 -24 -20 -40 0 -17 -8 -33 -20
-40 -12 -8 -20 -24 -20 -40 0 -17 -8 -33 -20 -40 -11 -7 -20 -24 -20 -38 0
-17 -15 -39 -44 -67 -32 -30 -43 -48 -39 -62 3 -13 -2 -24 -16 -33 -13 -8 -21
-23 -21 -40 0 -17 -8 -33 -20 -40 -12 -8 -20 -24 -20 -40 0 -17 -8 -33 -20
-40 -12 -8 -20 -24 -20 -40 0 -17 -8 -33 -20 -40 -12 -8 -20 -24 -20 -40 0
-17 -8 -33 -20 -40 -12 -8 -20 -24 -20 -39 0 -14 -10 -34 -24 -46 -16 -14 -23
-28 -19 -42 3 -13 -2 -24 -16 -33 -13 -8 -21 -23 -21 -40 0 -17 -8 -33 -20
-40 -12 -8 -20 -24 -20 -40 0 -17 -8 -33 -20 -40 -12 -8 -20 -24 -20 -40 0
-17 -8 -33 -20 -40 -12 -8 -20 -24 -20 -40 0 -17 -8 -33 -20 -40 -12 -8 -20
-24 -20 -40 0 -17 -8 -33 -20 -40 -11 -7 -20 -24 -20 -38 0 -17 -15 -39 -44
-67 -32 -30 -43 -48 -39 -62 3 -13 -2 -24 -16 -33 -13 -8 -21 -23 -21 -40 0
-17 -8 -33 -20 -40 -12 -8 -20 -24 -20 -40 0 -17 -8 -33 -20 -40 -12 -8 -20
-24 -20 -40 0 -15 -8 -33 -19 -40 -11 -8 -21 -32 -25 -61 -6 -36 -17 -57 -46
-88 -25 -26 -36 -46 -33 -59 3 -12 -3 -23 -16 -32 -13 -8 -21 -23 -21 -40 0
-17 -8 -33 -20 -40 -12 -8 -20 -24 -20 -40 0 -17 -8 -33 -20 -40 -12 -8 -20
-24 -20 -40 0 -17 -8 -33 -20 -40 -12 -8 -20 -24 -20 -40 0 -17 -8 -33 -20
-40 -12 -8 -20 -24 -20 -40 0 -17 -8 -33 -20 -40 -12 -8 -20 -24 -20 -40 0
-17 -8 -33 -20 -40 -12 -8 -20 -24 -20 -40 0 -17 -8 -33 -20 -40 -11 -7 -20
-24 -20 -38 0 -17 -15 -39 -44 -67 -41 -39 -44 -45 -39 -82 5 -33 2 -42 -16
-53 -13 -8 -21 -23 -21 -40 0 -17 -8 -33 -20 -40 -12 -8 -20 -24 -20 -40 0
-17 -8 -33 -20 -40 -11 -7 -20 -24 -20 -38 0 -17 -15 -39 -45 -68 -29 -28 -42
-48 -38 -58 4 -10 -4 -25 -21 -41 -14 -13 -24 -28 -21 -33 8 -13 -14 -90 -25
-90 -6 0 -10 -13 -10 -30 0 -19 -7 -33 -20 -40 -24 -13 -26 -29 -3 -45 19 -14
10 -35 -17 -35 -26 0 -90 -67 -83 -86 3 -10 -5 -25 -20 -40 -16 -15 -24 -30
-20 -40 4 -10 -4 -25 -20 -40 -22 -20 -25 -30 -20 -60 5 -33 2 -40 -37 -77
-40 -37 -43 -44 -41 -83 1 -34 -2 -46 -19 -56 -12 -8 -20 -23 -20 -40 0 -17
-8 -33 -20 -40 -12 -8 -20 -24 -20 -40 0 -17 -8 -33 -20 -40 -12 -8 -20 -24
-20 -40 0 -17 -8 -33 -20 -40 -12 -8 -20 -24 -20 -40 0 -17 -8 -33 -20 -40
-12 -8 -20 -24 -20 -40 0 -17 -8 -33 -20 -40 -12 -8 -20 -24 -20 -40 0 -17 -8
-33 -20 -40 -12 -8 -20 -24 -20 -40 0 -17 -8 -33 -20 -40 -21 -13 -29 -78 -10
-78 6 0 10 -9 10 -20 0 -24 -16 -26 -28 -3 -15 26 -44 9 -33 -20 10 -26 6 -37
-24 -53 -11 -6 -20 -21 -20 -32 0 -11 -10 -30 -22 -41 -13 -13 -20 -28 -16
-37 4 -10 -4 -25 -20 -39 -21 -20 -24 -30 -20 -64 5 -33 2 -42 -16 -53 -13 -8
-21 -23 -21 -40 0 -17 -8 -33 -20 -40 -12 -8 -20 -24 -20 -40 0 -17 -8 -33
-20 -40 -12 -8 -20 -24 -20 -40 0 -17 -8 -33 -20 -40 -11 -7 -20 -23 -20 -36
0 -13 -9 -35 -20 -49 -11 -14 -20 -32 -20 -41 0 -8 -11 -25 -25 -38 -16 -14
-22 -29 -19 -39 5 -11 -8 -31 -40 -62 -34 -32 -45 -50 -41 -64 4 -12 -1 -22
-14 -31 -17 -10 -21 -23 -21 -64 0 -35 -5 -54 -14 -57 -29 -11 -36 17 -36 145
0 79 -4 128 -10 128 -5 0 -10 11 -10 24 0 14 5 28 10 31 6 4 10 79 10 193 0
176 -1 188 -20 200 -12 7 -20 23 -20 40 0 16 -8 32 -20 40 -12 7 -20 23 -20
40 0 16 -8 32 -20 40 -12 7 -20 23 -20 40 0 17 -8 32 -21 40 -14 9 -19 20 -16
33 7 25 -178 212 -202 204 -10 -3 -32 12 -59 40 -39 41 -46 45 -80 39 -31 -5
-40 -2 -59 19 -20 24 -27 25 -78 20 -51 -5 -59 -4 -79 18 -32 35 -178 35 -203
-1 -13 -19 -22 -21 -54 -16 -33 5 -42 3 -61 -19 -18 -21 -27 -24 -59 -19 -32
5 -41 2 -60 -20 -14 -16 -29 -24 -39 -21 -11 4 -46 -24 -108 -85 -87 -85 -105
-110 -82 -110 6 0 10 -9 10 -20 0 -27 -19 -25 -29 2 -8 21 -9 21 -44 -14 -25
-25 -34 -42 -30 -56 3 -14 -2 -25 -16 -34 -12 -7 -21 -23 -21 -38 0 -16 -15
-39 -44 -66 l-43 -42 0 -337 0 -338 24 -20 c13 -12 21 -28 18 -37 -5 -17 44
-80 62 -80 6 0 13 7 17 15 8 22 26 18 26 -5 0 -11 -4 -20 -10 -20 -18 0 -10
-29 11 -41 14 -7 19 -17 16 -30 -7 -25 177 -211 199 -202 10 4 32 -11 60 -41
42 -42 48 -46 82 -40 31 5 40 2 58 -19 21 -24 26 -25 116 -21 142 5 146 5 247
1 88 -4 95 -3 114 20 13 14 27 21 38 18 12 -4 26 3 40 20 14 15 29 23 39 20
12 -4 72 50 202 180 134 134 188 183 194 173 5 -7 10 -59 11 -115 2 -94 0
-104 -19 -117 -19 -14 -26 -92 -19 -223 2 -33 50 -11 89 40 47 60 112 170 112
187 0 7 13 29 29 49 16 21 33 50 37 67 4 16 15 37 25 46 10 10 21 34 25 54 4
20 17 55 30 78 13 23 24 49 24 58 0 9 11 25 25 36 17 13 25 30 25 50 0 16 7
35 15 42 8 7 15 20 15 30 0 9 9 29 20 43 11 14 20 34 20 45 0 10 9 27 20 37
11 10 20 27 20 37 0 11 11 36 25 56 14 20 25 44 25 53 0 9 12 38 26 65 52 99
73 141 104 209 18 39 52 110 76 158 24 49 44 95 44 104 0 8 8 27 18 41 32 50
42 67 54 92 18 40 59 123 73 150 8 14 23 50 35 80 12 30 39 85 61 122 21 36
39 71 39 77 0 8 34 76 100 200 28 52 90 193 90 204 0 7 11 23 24 34 15 14 23
29 20 40 -3 11 3 26 15 37 12 11 21 27 21 37 0 10 5 21 10 24 6 3 10 14 10 24
0 10 9 26 20 36 11 10 20 28 20 40 0 13 7 29 17 36 17 15 93 165 93 185 0 6 7
17 15 24 8 7 15 22 15 34 0 13 11 32 25 44 14 12 25 29 25 38 0 9 9 27 20 41
11 14 20 33 20 42 0 10 4 21 9 26 11 12 111 209 111 219 0 4 9 19 20 33 11 14
20 33 20 41 0 9 18 46 40 83 22 37 40 74 40 82 0 8 9 22 20 32 11 10 20 28 20
39 0 12 9 29 20 39 11 9 20 25 20 36 0 10 8 29 18 42 10 13 42 71 70 129 29
58 57 112 62 120 13 23 47 89 76 150 15 30 30 62 35 70 4 8 22 42 40 75 17 33
35 64 40 69 5 6 9 17 9 27 0 9 9 27 19 41 11 13 23 36 26 51 4 14 13 31 21 38
8 6 14 21 14 34 0 12 9 30 20 40 11 10 20 27 20 37 0 11 15 38 34 61 18 23 37
53 41 67 8 27 56 129 80 170 8 14 21 39 29 56 8 17 22 36 30 44 9 7 16 25 16
40 0 15 9 35 19 44 20 18 111 195 111 216 0 6 8 23 18 38 32 48 42 66 62 108
11 23 27 47 35 54 8 7 15 22 15 34 0 12 9 29 20 39 11 9 20 26 20 36 0 11 8
26 18 33 11 7 22 29 26 49 3 19 17 51 31 69 14 19 25 42 25 52 0 10 16 41 35
69 19 28 35 61 35 74 0 12 9 33 19 47 11 13 23 37 26 51 4 15 11 30 16 33 5 3
9 21 9 39 0 24 6 38 21 45 17 10 20 19 17 63 -3 56 23 77 52 42 17 -21 40 -19
40 4 0 54 -78 69 -122 24z m-3853 -4893 c22 -11 56 -20 77 -20 28 0 44 -7 60
-25 12 -14 30 -25 41 -25 11 0 35 -11 54 -26 18 -14 46 -29 61 -35 15 -5 46
-33 67 -61 22 -28 52 -65 67 -82 28 -33 78 -138 78 -163 0 -8 14 -45 31 -80
29 -61 30 -68 19 -104 -16 -49 -16 -86 0 -125 12 -28 11 -34 -8 -59 -12 -15
-22 -40 -22 -55 0 -31 -75 -190 -89 -190 -5 0 -13 -10 -16 -22 -9 -28 -114
-138 -132 -138 -7 0 -21 -8 -31 -17 -33 -34 -117 -81 -154 -88 -21 -4 -42 -13
-48 -20 -11 -13 -201 -12 -242 1 -11 3 -30 -1 -43 -10 -19 -12 -25 -13 -34 -2
-6 7 -30 19 -53 26 -104 32 -205 99 -285 186 -82 90 -115 137 -119 169 -1 11
-3 22 -3 25 -1 3 -15 21 -32 39 -27 30 -29 37 -19 56 8 15 9 29 2 41 -8 17 -8
73 1 269 2 31 11 64 25 86 12 20 22 42 22 50 0 26 91 164 125 189 18 14 39 35
47 46 24 39 99 94 127 94 17 0 38 11 56 30 25 26 35 30 65 26 22 -3 52 2 80
13 64 27 174 27 225 1z"/>
<path d="M15343 11606 c-7 -8 -18 -16 -25 -18 -10 -4 -8 -17 5 -64 10 -32 21
-70 24 -84 7 -33 72 -168 84 -175 5 -4 9 -19 9 -35 0 -16 4 -31 9 -35 6 -3 16
-18 24 -33 7 -15 23 -43 34 -63 34 -58 40 -70 78 -149 20 -41 42 -86 49 -100
8 -14 32 -64 55 -112 23 -48 46 -90 51 -93 6 -3 10 -15 10 -26 0 -10 9 -27 20
-36 11 -10 20 -27 20 -38 0 -11 11 -37 25 -57 14 -20 25 -46 25 -58 0 -11 11
-30 25 -42 14 -12 25 -29 25 -38 0 -10 9 -29 20 -43 11 -14 20 -32 20 -41 0
-8 13 -37 29 -64 16 -27 32 -58 35 -70 4 -11 13 -26 21 -32 8 -7 15 -25 15
-40 0 -15 9 -35 20 -45 11 -10 20 -25 20 -33 0 -8 13 -36 29 -62 16 -27 61
-113 99 -192 38 -79 77 -150 86 -157 9 -7 16 -20 16 -28 0 -8 11 -37 25 -65
14 -27 25 -56 25 -64 0 -8 9 -23 20 -34 11 -11 20 -29 20 -40 0 -11 11 -27 25
-36 18 -12 23 -22 19 -38 -3 -13 2 -31 14 -46 11 -14 28 -43 39 -65 42 -82 63
-118 79 -136 9 -10 14 -24 12 -31 -3 -7 8 -33 24 -57 15 -25 28 -52 28 -62 0
-9 8 -27 18 -40 11 -13 22 -36 26 -51 3 -15 15 -32 26 -38 11 -6 20 -17 20
-25 0 -13 30 -81 51 -115 5 -8 14 -26 19 -40 6 -14 14 -32 19 -40 5 -8 45 -84
88 -168 43 -84 93 -181 110 -215 18 -34 33 -69 33 -78 0 -9 9 -24 20 -34 11
-10 20 -31 20 -46 0 -15 5 -29 11 -31 10 -3 65 -93 90 -148 7 -14 31 -68 56
-120 24 -52 48 -102 53 -110 6 -8 15 -26 21 -40 6 -14 15 -32 20 -40 5 -8 16
-30 25 -49 8 -19 22 -40 30 -48 8 -8 14 -20 14 -27 0 -8 7 -19 15 -26 8 -7 15
-23 15 -36 0 -13 8 -31 19 -41 10 -10 24 -36 32 -58 7 -22 21 -49 31 -61 10
-11 18 -27 18 -35 1 -8 23 -54 50 -104 27 -49 61 -115 76 -145 36 -75 118
-238 137 -275 42 -80 97 -200 97 -211 0 -6 7 -14 14 -17 8 -3 20 -24 25 -45 6
-22 21 -54 34 -73 19 -29 122 -233 156 -309 6 -14 15 -32 20 -40 5 -8 18 -33
28 -55 10 -22 28 -58 39 -80 12 -22 36 -71 55 -110 18 -38 43 -82 55 -97 12
-15 30 -50 39 -77 9 -27 23 -55 31 -61 7 -7 14 -20 14 -29 0 -10 11 -28 25
-41 14 -13 25 -30 25 -37 0 -8 14 -22 30 -31 17 -9 33 -28 36 -42 10 -43 13
-50 24 -50 20 0 0 273 -22 288 -13 10 -18 26 -18 60 0 36 -5 50 -20 60 -11 7
-20 23 -20 37 0 14 -8 29 -21 35 -25 14 -58 84 -59 125 0 19 -7 35 -20 43 -12
7 -20 23 -20 40 0 16 -8 32 -20 40 -12 7 -20 23 -20 40 0 16 -8 32 -20 40 -12
7 -20 23 -20 40 0 16 -8 32 -20 40 -12 7 -20 23 -20 40 0 16 -8 32 -20 40 -12
7 -20 23 -20 40 0 16 -8 32 -20 40 -12 7 -20 23 -20 40 0 16 -8 32 -20 40 -12
7 -20 23 -20 40 0 16 -8 32 -20 40 -12 7 -20 23 -20 40 0 16 -8 32 -20 40 -12
7 -20 23 -20 40 0 16 -8 32 -20 40 -12 7 -20 23 -20 40 0 16 -8 32 -20 40 -12
7 -20 23 -20 40 0 16 -8 32 -20 40 -12 7 -20 23 -20 40 0 16 -8 32 -20 40 -12
7 -20 23 -20 40 0 16 -8 32 -20 40 -12 7 -20 23 -20 40 0 16 -8 32 -20 40 -12
7 -20 23 -20 40 0 16 -8 32 -20 40 -12 7 -20 23 -20 40 0 16 -8 32 -20 40 -12
7 -20 23 -20 40 0 16 -8 32 -20 40 -12 7 -20 23 -20 40 0 16 -8 32 -20 40 -12
7 -20 23 -20 40 0 16 -8 32 -20 40 -12 7 -20 23 -20 40 0 16 -8 32 -20 40 -12
7 -20 23 -20 40 0 16 -8 32 -20 40 -12 7 -20 23 -20 40 0 16 -8 32 -20 40 -12
7 -20 23 -20 40 0 17 -8 32 -21 40 -13 9 -19 20 -16 32 3 13 -8 32 -33 58 -30
30 -40 50 -46 88 -4 30 -14 54 -25 62 -11 7 -19 25 -19 40 0 16 -8 32 -20 40
-13 8 -20 23 -20 42 0 24 -5 31 -27 36 -46 10 -53 13 -53 25 0 6 9 13 20 16
30 8 24 24 -20 62 -28 24 -40 42 -40 60 0 15 -8 31 -20 39 -12 7 -20 23 -20
40 0 16 -8 32 -20 40 -12 7 -20 23 -20 40 0 16 -8 32 -20 40 -13 8 -20 23 -20
42 0 17 -4 30 -10 30 -11 0 -31 67 -24 85 3 7 -15 32 -40 56 -33 31 -46 52
-46 72 0 15 -4 27 -10 27 -11 0 -33 77 -25 89 8 13 -64 81 -86 81 -12 0 -19 7
-19 20 0 11 5 20 10 20 18 0 11 29 -10 40 -12 7 -20 21 -20 38 0 16 -8 32 -20
40 -12 7 -20 23 -20 40 0 16 -8 32 -20 40 -12 7 -20 23 -20 40 0 16 -8 32 -20
40 -12 7 -20 23 -20 40 0 16 -8 32 -20 40 -12 7 -20 23 -20 40 0 16 -8 32 -20
40 -12 7 -20 23 -20 40 0 16 -8 32 -20 40 -12 7 -20 23 -20 40 0 16 -8 32 -20
40 -12 7 -20 23 -20 40 0 16 -8 32 -20 40 -12 7 -20 23 -20 40 0 16 -8 32 -20
40 -12 7 -20 23 -20 40 0 16 -8 32 -20 40 -12 7 -20 23 -20 40 0 16 -8 32 -20
40 -12 7 -20 23 -20 40 0 16 -8 32 -20 40 -12 7 -20 23 -20 40 0 16 -8 32 -20
40 -12 7 -20 23 -20 40 0 16 -8 32 -20 40 -12 7 -20 23 -20 40 0 16 -8 32 -20
40 -12 7 -20 23 -20 40 0 16 -8 32 -20 40 -12 7 -20 23 -20 40 0 16 -8 32 -20
40 -12 7 -20 23 -20 40 0 16 -8 32 -20 40 -12 7 -20 23 -20 40 0 16 -8 32 -20
40 -11 7 -20 23 -20 36 0 14 -10 30 -25 40 -20 13 -24 22 -19 42 5 19 1 29
-15 40 -13 9 -21 26 -21 42 0 16 -8 32 -20 40 -12 7 -20 23 -20 40 0 16 -8 32
-20 40 -12 7 -20 23 -20 40 0 16 -8 32 -20 40 -12 7 -20 23 -20 40 0 16 -8 32
-20 40 -12 7 -20 23 -20 40 0 16 -8 32 -20 40 -12 7 -20 23 -20 40 0 16 -8 32
-20 40 -12 7 -20 23 -20 40 0 16 -8 32 -20 40 -12 7 -20 23 -20 40 0 17 -8 32
-21 40 -11 7 -19 21 -18 30 3 33 -1 39 -41 67 -30 21 -40 34 -40 55 0 20 -17
45 -65 94 -69 70 -73 73 -92 52z"/>
<path d="M15227 8382 c-7 -15 -18 -36 -25 -47 -25 -46 -42 -89 -42 -110 0 -12
-9 -30 -20 -40 -11 -10 -20 -25 -20 -33 0 -8 -11 -35 -24 -61 -13 -25 -29 -57
-35 -71 -6 -14 -15 -32 -20 -40 -6 -8 -19 -37 -31 -65 -12 -27 -28 -61 -35
-75 -23 -43 -100 -199 -174 -352 -39 -81 -75 -149 -81 -153 -5 -3 -10 -13 -10
-22 0 -9 -8 -26 -18 -37 -10 -12 -27 -41 -37 -66 -23 -57 -121 -265 -142 -305
-28 -51 -32 -58 -63 -127 -16 -37 -30 -70 -30 -74 0 -3 -22 -44 -50 -91 -27
-47 -50 -93 -50 -102 0 -10 -9 -26 -20 -36 -11 -10 -20 -30 -20 -45 0 -15 -9
-35 -20 -45 -11 -10 -20 -31 -20 -46 0 -18 -7 -32 -20 -39 -11 -6 -20 -19 -20
-30 0 -11 -13 -42 -30 -68 -16 -27 -30 -55 -30 -62 0 -6 -9 -23 -20 -37 -11
-14 -20 -32 -20 -39 0 -11 -55 -124 -90 -184 -23 -40 -50 -102 -59 -137 -19
-67 -46 -101 -92 -113 -23 -6 -54 -21 -69 -32 -22 -16 -31 -18 -46 -8 -16 10
-30 7 -76 -13 -31 -14 -83 -29 -115 -32 -32 -4 -77 -16 -100 -26 -23 -11 -50
-19 -60 -19 -10 0 -40 -12 -68 -25 -27 -14 -67 -25 -87 -25 -21 0 -52 -9 -70
-20 -18 -11 -50 -20 -71 -20 -22 0 -57 -11 -83 -25 -30 -17 -53 -23 -71 -19
-29 6 -115 -25 -128 -46 -4 -6 -16 -8 -27 -4 -23 7 -94 -12 -118 -32 -8 -6
-45 -15 -81 -19 -37 -3 -83 -15 -103 -26 -20 -10 -44 -19 -54 -19 -9 0 -55
-14 -102 -31 -47 -17 -99 -35 -117 -40 -18 -5 -46 -21 -62 -34 -17 -15 -42
-25 -59 -25 -33 0 -48 -13 -36 -32 4 -7 8 -23 9 -36 1 -26 21 -43 43 -35 7 3
24 -5 36 -18 32 -35 178 -35 203 0 14 22 21 23 95 17 75 -5 80 -4 101 20 19
22 28 25 59 20 31 -5 41 -2 62 20 23 26 28 27 101 22 73 -5 79 -4 99 19 18 21
27 24 58 19 31 -5 41 -2 62 20 22 25 29 27 81 21 51 -5 58 -4 78 20 19 21 28
24 59 19 32 -5 41 -2 60 19 20 23 27 25 80 20 53 -5 60 -3 80 21 20 22 29 25
60 20 32 -5 41 -2 60 20 20 22 29 25 60 20 32 -5 41 -2 60 20 20 22 29 25 60
20 32 -5 41 -2 60 19 14 16 28 23 39 20 12 -4 26 3 40 20 14 15 29 23 40 20
22 -7 130 100 122 121 -4 10 11 32 40 59 32 32 44 50 40 64 -3 13 2 24 16 33
12 7 21 23 21 38 0 17 15 39 44 67 41 39 44 45 39 82 -5 33 -2 42 16 53 12 8
21 23 21 39 0 14 10 34 24 46 16 14 23 28 19 41 -3 12 2 25 15 33 12 9 22 32
26 63 6 38 16 58 42 84 20 20 34 44 34 58 0 13 9 29 20 36 12 8 20 24 20 40 0
17 8 33 20 40 12 8 20 24 20 40 0 17 8 33 20 40 12 8 20 24 20 40 0 17 8 33
20 40 12 8 20 24 20 40 0 16 8 33 21 42 16 11 20 21 15 40 -5 20 -1 29 19 42
15 10 25 26 25 40 0 13 9 29 20 36 12 8 20 24 20 40 0 17 8 33 20 40 12 8 20
24 20 39 0 15 10 34 25 47 15 14 22 27 18 38 -4 10 4 25 20 40 21 20 25 30 20
59 -5 33 -2 40 40 81 30 29 44 50 40 60 -4 10 4 25 20 40 16 15 24 30 20 40
-4 10 4 25 20 40 21 20 25 30 20 59 -5 33 -2 40 40 81 30 29 44 50 40 60 -4
10 4 25 20 40 16 15 24 30 20 40 -4 10 4 25 20 40 16 14 24 30 20 39 -3 10 14
35 49 70 l54 54 35 -37 c19 -20 53 -52 76 -71 35 -28 42 -38 37 -58 -5 -18 -1
-28 15 -39 13 -9 21 -26 21 -42 0 -16 8 -32 20 -40 12 -7 20 -23 20 -40 0 -17
8 -32 21 -40 14 -9 19 -20 16 -33 -4 -14 7 -32 39 -62 29 -28 44 -50 44 -67 0
-14 9 -31 20 -38 12 -7 20 -23 20 -40 0 -17 8 -32 21 -40 18 -11 20 -21 16
-52 -6 -47 0 -57 37 -62 35 -4 43 -20 21 -41 -22 -22 -19 -28 25 -66 28 -24
40 -42 40 -60 0 -15 8 -31 20 -39 12 -7 20 -23 20 -40 0 -17 8 -32 21 -40 14
-9 19 -20 16 -33 -4 -13 4 -28 20 -43 16 -15 24 -30 20 -40 -4 -10 4 -25 20
-40 16 -15 24 -30 20 -40 -4 -10 4 -25 20 -40 16 -15 24 -30 20 -40 -4 -10 4
-25 20 -40 16 -15 24 -30 20 -40 -4 -10 9 -30 38 -58 30 -29 45 -51 45 -68 0
-14 9 -31 20 -38 12 -7 20 -23 20 -40 0 -16 8 -32 20 -40 12 -7 20 -23 20 -40
0 -17 8 -32 21 -40 14 -9 19 -20 16 -33 -4 -13 4 -28 20 -43 16 -15 24 -30 20
-40 -4 -10 4 -25 20 -40 16 -15 24 -30 20 -40 -4 -10 10 -31 40 -60 42 -41 45
-48 40 -80 -5 -33 -2 -40 40 -80 29 -28 44 -50 40 -60 -4 -10 39 -59 130 -150
133 -133 136 -136 172 -130 30 5 40 2 59 -20 19 -22 28 -25 60 -20 31 5 40 2
60 -20 19 -22 28 -25 60 -20 31 5 40 2 59 -19 20 -24 27 -25 78 -20 52 6 59 4
81 -21 32 -34 137 -30 162 5 11 16 21 19 41 14 59 -15 48 -45 -17 -45 -30 0
-32 -2 -21 -21 10 -20 17 -21 73 -15 58 6 64 4 83 -18 20 -22 27 -24 77 -19
52 5 58 4 81 -21 21 -22 30 -25 62 -20 32 5 41 2 59 -19 20 -23 27 -24 102
-21 74 3 83 2 96 -18 24 -33 339 -32 363 1 10 15 21 20 33 16 13 -4 26 1 37
14 10 12 24 21 31 21 27 0 7 35 -20 36 -14 1 -45 16 -67 33 -26 21 -48 31 -58
27 -9 -4 -39 7 -71 25 -39 22 -63 29 -83 25 -17 -3 -32 0 -40 10 -8 10 -22 13
-44 8 -25 -4 -35 -2 -42 11 -10 17 -64 35 -123 40 -19 1 -66 14 -105 28 -38
15 -80 24 -92 21 -11 -3 -32 1 -45 9 -41 26 -138 49 -153 37 -10 -9 -24 -5
-56 16 -27 17 -65 29 -104 34 -34 4 -71 12 -81 18 -10 5 -45 13 -76 16 -32 4
-68 16 -81 27 -17 13 -45 20 -90 22 -36 2 -72 8 -79 14 -22 16 -93 33 -140 33
-27 0 -50 6 -57 14 -7 8 -32 20 -56 27 -30 9 -47 20 -51 34 -4 11 -14 29 -24
40 -10 11 -24 40 -31 65 -7 25 -17 51 -23 59 -13 17 -70 122 -92 171 -9 19
-20 42 -25 50 -5 8 -25 47 -44 85 -20 39 -47 88 -60 110 -13 22 -31 54 -39 71
-8 17 -22 36 -30 44 -9 7 -16 19 -16 28 0 20 -96 210 -120 237 -10 11 -23 36
-29 56 -7 20 -27 58 -46 85 -19 27 -35 56 -35 64 0 22 -48 111 -76 141 -13 14
-24 37 -24 51 0 15 -5 30 -11 34 -6 4 -24 34 -39 68 -16 33 -40 78 -54 99 -14
21 -26 41 -26 44 0 3 -13 28 -30 55 -16 26 -30 55 -30 64 0 9 -9 27 -20 41
-11 14 -20 34 -20 43 0 10 -6 23 -14 29 -8 7 -18 25 -21 41 -3 15 -15 36 -26
46 -10 9 -19 25 -19 36 0 10 -9 26 -20 35 -11 10 -20 30 -20 46 0 16 -7 30
-15 34 -17 6 -55 73 -55 96 0 8 -8 25 -18 38 -11 13 -22 36 -25 51 -4 14 -17
39 -30 55 -13 15 -41 68 -62 117 -21 49 -53 122 -71 163 -19 41 -34 82 -34 92
0 9 -13 27 -29 39 l-30 22 -14 -28z"/>
</g>
</svg>
